<svg width="32" height="32" viewBox="0 0 32 32" fill="none" xmlns="http://www.w3.org/2000/svg">
<path fill-rule="evenodd" clip-rule="evenodd" d="M10.8974 3.68157C12.5151 3.0115 14.2489 2.66663 15.9998 2.66663C17.7508 2.66663 19.4846 3.0115 21.1023 3.68157C22.72 4.35163 24.1898 5.33375 25.4279 6.57187C26.666 7.80998 27.6482 9.27984 28.3182 10.8975C28.9883 12.5152 29.3332 14.249 29.3332 16C29.3332 17.7509 28.9883 19.4847 28.3182 21.1024C27.6482 22.7201 26.666 24.1899 25.4279 25.428C24.1898 26.6662 22.72 27.6483 21.1023 28.3184C19.4846 28.9884 17.7508 29.3333 15.9998 29.3333C14.2489 29.3333 12.5151 28.9884 10.8974 28.3184C9.27972 27.6483 7.80986 26.6662 6.57175 25.428C5.33363 24.1899 4.35151 22.7201 3.68144 21.1024C3.01138 19.4847 2.6665 17.7509 2.6665 16C2.6665 14.249 3.01138 12.5152 3.68144 10.8975C4.35151 9.27984 5.33363 7.80998 6.57175 6.57187C7.80986 5.33375 9.27972 4.35163 10.8974 3.68157ZM15.9998 5.33329C14.5991 5.33329 13.212 5.60919 11.9179 6.14524C10.6237 6.68129 9.44786 7.467 8.45736 8.45749C7.46687 9.44798 6.68117 10.6239 6.14512 11.918C5.60907 13.2121 5.33317 14.5992 5.33317 16C5.33317 17.4007 5.60907 18.7878 6.14512 20.0819C6.68117 21.3761 7.46687 22.5519 8.45736 23.5424C9.44786 24.5329 10.6237 25.3186 11.9179 25.8547C13.212 26.3907 14.5991 26.6666 15.9998 26.6666C17.4006 26.6666 18.7877 26.3907 20.0818 25.8547C21.3759 25.3186 22.5518 24.5329 23.5423 23.5424C24.5328 22.5519 25.3185 21.3761 25.8546 20.0819C26.3906 18.7878 26.6665 17.4007 26.6665 16C26.6665 14.5992 26.3906 13.2121 25.8546 11.918C25.3185 10.6239 24.5328 9.44798 23.5423 8.45749C22.5518 7.46699 21.3759 6.68129 20.0818 6.14524C18.7877 5.60919 17.4006 5.33329 15.9998 5.33329Z" fill="#9747FF"/>
<path fill-rule="evenodd" clip-rule="evenodd" d="M15.2602 14.8906C15.8729 14.4821 16.7008 14.6477 17.1092 15.2604L19.7759 19.2604C20.1844 19.8731 20.0188 20.7009 19.4061 21.1094C18.7934 21.5178 17.9656 21.3523 17.5571 20.7396L14.8904 16.7396C14.482 16.1269 14.6475 15.299 15.2602 14.8906Z" fill="#9747FF"/>
<path fill-rule="evenodd" clip-rule="evenodd" d="M15.9998 7.99996C16.7362 7.99996 17.3332 8.59691 17.3332 9.33329V16C17.3332 16.7363 16.7362 17.3333 15.9998 17.3333C15.2635 17.3333 14.6665 16.7363 14.6665 16V9.33329C14.6665 8.59691 15.2635 7.99996 15.9998 7.99996Z" fill="#9747FF"/>
</svg>
