<svg width="64" height="41" viewBox="0 0 64 41" fill="none" xmlns="http://www.w3.org/2000/svg">
<path d="M60.2655 36.4961C60.2655 36.2539 60.1933 36.0352 60.0491 35.8398C59.9048 35.6445 59.6363 35.4648 59.2435 35.3008C58.8588 35.1289 58.3017 34.9727 57.5723 34.832C56.6906 34.6445 55.9011 34.3906 55.2037 34.0703C54.5064 33.75 53.9573 33.3398 53.5566 32.8398C53.1558 32.3398 52.9554 31.7266 52.9554 31C52.9554 30.2969 53.1598 29.6484 53.5686 29.0547C53.9854 28.4609 54.5825 27.9844 55.36 27.625C56.1375 27.2656 57.0673 27.0859 58.1494 27.0859C59.2796 27.0859 60.2494 27.2617 61.059 27.6133C61.8766 27.9648 62.5018 28.4492 62.9346 29.0664C63.3755 29.6758 63.5959 30.3711 63.5959 31.1523H60.1332C60.1332 30.6602 59.9729 30.25 59.6523 29.9219C59.3317 29.5859 58.8267 29.418 58.1374 29.418C57.7526 29.418 57.42 29.4844 57.1395 29.6172C56.8589 29.7422 56.6425 29.9141 56.4902 30.1328C56.3459 30.3438 56.2738 30.5781 56.2738 30.8359C56.2738 31.0938 56.3499 31.3203 56.5022 31.5156C56.6625 31.7031 56.919 31.8711 57.2717 32.0195C57.6244 32.1602 58.1053 32.2891 58.7145 32.4062C59.6523 32.5938 60.4899 32.8398 61.2273 33.1445C61.9647 33.4414 62.5499 33.8477 62.9827 34.3633C63.4155 34.8711 63.632 35.5391 63.632 36.3672C63.632 37.1094 63.4075 37.7734 62.9587 38.3594C62.5098 38.9453 61.8766 39.4062 61.059 39.7422C60.2414 40.0703 59.2756 40.2344 58.1614 40.2344C56.9511 40.2344 55.9251 40.0234 55.0835 39.6016C54.2499 39.1797 53.6167 38.6445 53.1838 37.9961C52.759 37.3398 52.5466 36.668 52.5466 35.9805H55.8289C55.845 36.4414 55.9652 36.8125 56.1896 37.0938C56.4221 37.375 56.7146 37.5781 57.0673 37.7031C57.428 37.8281 57.8168 37.8906 58.2336 37.8906C58.6824 37.8906 59.0551 37.832 59.3517 37.7148C59.6483 37.5898 59.8727 37.4258 60.025 37.2227C60.1853 37.0117 60.2655 36.7695 60.2655 36.4961Z" fill="#222222"/>
<path d="M35.3656 29.9453V40H31.8909V27.3203H35.1491L35.3656 29.9453ZM34.8846 33.2148H33.9228C33.9228 32.0352 34.1152 30.9844 34.4999 30.0625C34.8927 29.1406 35.4658 28.4141 36.2192 27.8828C36.9727 27.3516 37.9065 27.0859 39.0206 27.0859C40.1828 27.0859 41.1287 27.4336 41.8581 28.1289C42.5875 28.8164 42.9522 29.9531 42.9522 31.5391V40H39.4895V31.9141C39.4895 31.3359 39.4093 30.8906 39.249 30.5781C39.0887 30.2656 38.8603 30.0469 38.5637 29.9219C38.2752 29.7969 37.9265 29.7344 37.5177 29.7344C37.0688 29.7344 36.6761 29.8242 36.3394 30.0039C36.0108 30.1836 35.7383 30.4336 35.5219 30.7539C35.3055 31.0664 35.1451 31.4336 35.0409 31.8555C34.9367 32.2773 34.8846 32.7305 34.8846 33.2148ZM42.6275 32.8281L41.3892 32.9805C41.3892 31.8789 41.5775 30.8828 41.9542 29.9922C42.331 29.1016 42.888 28.3945 43.6255 27.8711C44.3709 27.3477 45.2927 27.0859 46.3908 27.0859C47.2324 27.0859 47.9618 27.2461 48.579 27.5664C49.2042 27.8789 49.6891 28.3867 50.0338 29.0898C50.3784 29.793 50.5508 30.7305 50.5508 31.9023V40H47.0761V31.9023C47.0761 31.3164 46.9959 30.8711 46.8356 30.5664C46.6833 30.2539 46.4589 30.0391 46.1623 29.9219C45.8738 29.7969 45.5291 29.7344 45.1283 29.7344C44.7115 29.7344 44.3468 29.8164 44.0342 29.9805C43.7216 30.1367 43.4611 30.3555 43.2527 30.6367C43.0443 30.918 42.888 31.2461 42.7838 31.6211C42.6796 31.9883 42.6275 32.3906 42.6275 32.8281Z" fill="#222222"/>
<path d="M24.5928 40.2344C23.2462 40.2344 22.088 39.9609 21.1182 39.4141C20.1483 38.8594 19.4029 38.1172 18.8818 37.1875C18.3689 36.2578 18.1124 35.2266 18.1124 34.0938V33.625C18.1124 32.3438 18.3568 31.2148 18.8458 30.2383C19.3347 29.2539 20.0361 28.4844 20.9498 27.9297C21.8636 27.3672 22.9497 27.0859 24.2081 27.0859C25.4425 27.0859 26.4845 27.3477 27.3341 27.8711C28.1837 28.3867 28.829 29.1094 29.2698 30.0391C29.7107 30.9688 29.9311 32.0547 29.9311 33.2969V34.7031H19.5912V32.4531H26.5286V32.1953C26.5286 31.7266 26.4404 31.3086 26.2641 30.9414C26.0957 30.5664 25.8392 30.2695 25.4946 30.0508C25.1499 29.832 24.7091 29.7227 24.172 29.7227C23.5629 29.7227 23.0659 29.8906 22.6812 30.2266C22.2964 30.5625 22.0159 31.0273 21.8395 31.6211C21.6712 32.207 21.5871 32.875 21.5871 33.625V34.0938C21.5871 34.7734 21.7153 35.3789 21.9718 35.9102C22.2283 36.4336 22.597 36.8477 23.0779 37.1523C23.5588 37.4492 24.136 37.5977 24.8093 37.5977C25.4345 37.5977 26.0156 37.4805 26.5526 37.2461C27.0977 37.0039 27.5666 36.6406 27.9593 36.1562L29.6426 37.9375C29.2338 38.5156 28.6046 39.043 27.7549 39.5195C26.9053 39.9961 25.8513 40.2344 24.5928 40.2344Z" fill="#222222"/>
<path d="M15.9121 31.082V37.8438C15.6396 38.1641 15.2188 38.5117 14.6497 38.8867C14.0806 39.2539 13.3472 39.5703 12.4495 39.8359C11.5517 40.1016 10.4657 40.2344 9.1912 40.2344C7.6843 40.2344 6.36176 39.9141 5.22357 39.2734C4.08538 38.625 3.19968 37.6875 2.56646 36.4609C1.93324 35.2344 1.61663 33.75 1.61663 32.0078V30.9414C1.61663 29.1914 1.92122 27.7031 2.53039 26.4766C3.13956 25.25 3.9932 24.3125 5.09131 23.6641C6.19744 23.0156 7.48392 22.6914 8.95074 22.6914C10.4737 22.6914 11.7241 22.9336 12.702 23.418C13.6798 23.8945 14.4253 24.5586 14.9383 25.4102C15.4593 26.2539 15.7799 27.2227 15.9001 28.3164H12.4014C12.3132 27.7383 12.1449 27.2344 11.8964 26.8047C11.6479 26.375 11.2912 26.0391 10.8263 25.7969C10.3695 25.5547 9.77633 25.4336 9.04693 25.4336C8.24538 25.4336 7.56407 25.6445 7.00299 26.0664C6.44191 26.4805 6.01309 27.0938 5.71652 27.9062C5.41995 28.7188 5.27166 29.7227 5.27166 30.918V32.0078C5.27166 33.1953 5.42796 34.1992 5.74056 35.0195C6.05317 35.832 6.51405 36.4492 7.12322 36.8711C7.74041 37.2852 8.50188 37.4922 9.40762 37.4922C9.97672 37.4922 10.4496 37.4453 10.8263 37.3516C11.2111 37.2578 11.5197 37.1445 11.7521 37.0117C11.9926 36.8711 12.1769 36.7383 12.3052 36.6133V33.5898H9.01086V31.082H15.9121Z" fill="#222222"/>
<path d="M51.1038 15.2344V0H54.5906V18H51.4525L51.1038 15.2344ZM42.88 11.8125V11.5664C42.88 10.2773 43.0764 9.14844 43.4692 8.17969C43.8619 7.20312 44.439 6.44531 45.2005 5.90625C45.962 5.35938 46.8837 5.08594 47.9658 5.08594C48.9838 5.08594 49.8334 5.36328 50.5147 5.91797C51.196 6.46484 51.7331 7.21875 52.1258 8.17969C52.5266 9.13281 52.8031 10.2266 52.9554 11.4609V12C52.8031 13.1719 52.5266 14.2305 52.1258 15.1758C51.7331 16.1133 51.192 16.8594 50.5027 17.4141C49.8214 17.9609 48.9677 18.2344 47.9418 18.2344C46.8677 18.2344 45.9499 17.957 45.1885 17.4023C44.435 16.8398 43.8619 16.0742 43.4692 15.1055C43.0764 14.1367 42.88 13.0391 42.88 11.8125ZM46.3427 11.5664V11.8125C46.3427 12.5078 46.4228 13.1445 46.5831 13.7227C46.7435 14.293 47.004 14.7461 47.3647 15.082C47.7253 15.4102 48.2103 15.5742 48.8195 15.5742C49.4126 15.5742 49.9015 15.4453 50.2863 15.1875C50.671 14.9219 50.9636 14.5586 51.164 14.0977C51.3724 13.6367 51.4926 13.1055 51.5247 12.5039V10.9688C51.5006 10.4766 51.4285 10.0352 51.3082 9.64453C51.196 9.24609 51.0277 8.90625 50.8033 8.625C50.5868 8.34375 50.3143 8.125 49.9857 7.96875C49.6651 7.8125 49.2843 7.73438 48.8435 7.73438C48.2423 7.73438 47.7574 7.90625 47.3887 8.25C47.028 8.58594 46.7635 9.04297 46.5952 9.62109C46.4268 10.1992 46.3427 10.8477 46.3427 11.5664Z" fill="#222222"/>
<path d="M40.5596 5.32031V18H37.0849V5.32031H40.5596ZM36.8685 2.01562C36.8685 1.52344 37.0448 1.11719 37.3975 0.796875C37.7502 0.476562 38.2231 0.316406 38.8162 0.316406C39.4013 0.316406 39.8702 0.476562 40.2229 0.796875C40.5836 1.11719 40.764 1.52344 40.764 2.01562C40.764 2.50781 40.5836 2.91406 40.2229 3.23438C39.8702 3.55469 39.4013 3.71484 38.8162 3.71484C38.2231 3.71484 37.7502 3.55469 37.3975 3.23438C37.0448 2.91406 36.8685 2.50781 36.8685 2.01562Z" fill="#222222"/>
<path d="M28.849 15.5391L31.7346 5.32031H35.3535L30.9651 18H28.7769L28.849 15.5391ZM26.8652 5.32031L29.7628 15.5508L29.8229 18H27.6227L23.2342 5.32031H26.8652Z" fill="#222222"/>
<path d="M21.563 5.32031V18H18.0883V5.32031H21.563ZM17.8719 2.01562C17.8719 1.52344 18.0482 1.11719 18.4009 0.796875C18.7536 0.476562 19.2265 0.316406 19.8197 0.316406C20.4048 0.316406 20.8737 0.476562 21.2264 0.796875C21.5871 1.11719 21.7674 1.52344 21.7674 2.01562C21.7674 2.50781 21.5871 2.91406 21.2264 3.23438C20.8737 3.55469 20.4048 3.71484 19.8197 3.71484C19.2265 3.71484 18.7536 3.55469 18.4009 3.23438C18.0482 2.91406 17.8719 2.50781 17.8719 2.01562Z" fill="#222222"/>
<path d="M8.34958 14.4375L12.4735 0.9375H16.4892L10.3935 18H7.74843L8.34958 14.4375ZM4.55027 0.9375L8.66219 14.4375L9.28739 18H6.61825L0.558594 0.9375H4.55027Z" fill="#222222"/>
</svg>
